<?xml version="1.0" encoding="UTF-8" standalone="no"?>
<!-- Created with Inkscape (http://www.inkscape.org/) -->

<svg
   xmlns:dc="http://purl.org/dc/elements/1.1/"
   xmlns:cc="http://creativecommons.org/ns#"
   xmlns:rdf="http://www.w3.org/1999/02/22-rdf-syntax-ns#"
   xmlns:svg="http://www.w3.org/2000/svg"
   xmlns="http://www.w3.org/2000/svg"
   xmlns:sodipodi="http://sodipodi.sourceforge.net/DTD/sodipodi-0.dtd"
   xmlns:inkscape="http://www.inkscape.org/namespaces/inkscape"
   width="283.54388"
   height="281.63126"
   id="svg4200"
   version="1.1"
   inkscape:version="0.48.5 r10040"
   sodipodi:docname="New document 21">
  <defs
     id="defs4202" />
  <sodipodi:namedview
     id="base"
     pagecolor="#ffffff"
     bordercolor="#666666"
     borderopacity="1.0"
     inkscape:pageopacity="0.0"
     inkscape:pageshadow="2"
     inkscape:zoom="1"
     inkscape:cx="88.656092"
     inkscape:cy="65.521636"
     inkscape:document-units="px"
     inkscape:current-layer="layer1"
     showgrid="false"
     units="px"
     fit-margin-top="0.3"
     fit-margin-left="0.3"
     fit-margin-right="0.3"
     fit-margin-bottom="0.3"
     inkscape:window-width="1250"
     inkscape:window-height="858"
     inkscape:window-x="107"
     inkscape:window-y="79"
     inkscape:window-maximized="0" />
  <metadata
     id="metadata4205">
    <rdf:RDF>
      <cc:Work
         rdf:about="">
        <dc:format>image/svg+xml</dc:format>
        <dc:type
           rdf:resource="http://purl.org/dc/dcmitype/StillImage" />
        <dc:title></dc:title>
      </cc:Work>
    </rdf:RDF>
  </metadata>
  <g
     inkscape:label="Layer 1"
     inkscape:groupmode="layer"
     id="layer1"
     transform="translate(-93.381129,-646.7625)">
    <path
       style="fill:#ffffff;fill-opacity:1;stroke:#ffffff;stroke-width:3;stroke-linecap:butt;stroke-linejoin:miter;stroke-miterlimit:4;stroke-opacity:1;stroke-dasharray:none"
       d="m 234.5,650 c -44.8337,45.99012 -91.46618,92.62139 -136.75,137.875 -4.476627,2.88504 -2.16377,-0.65798 -0.09731,3.29458 42.73271,42.80566 96.5226,92.55459 139.19106,135.42417 46.20684,-46.69866 91.86461,-92.94793 138.28125,-139.4375 -46.74407,-46.8601 -92.47461,-91.73372 -139.21875,-138.59375 -0.46875,0.47917 -0.9375,0.95833 -1.40625,1.4375 z"
       id="polygon12"
       inkscape:connector-curvature="0"
       sodipodi:nodetypes="ccccccc" />
    <path
       style="fill:#ffffff;fill-opacity:1;stroke:#e31837;stroke-width:1.00000012px;stroke-linecap:butt;stroke-linejoin:miter;stroke-opacity:1"
       d="M 369.15517,787.3719 236.1039,920.1847 235.94189,787.3719 z"
       id="path3779-9"
       inkscape:connector-curvature="0"
       sodipodi:nodetypes="cccc" />
    <path
       style="fill:#ffffff;fill-opacity:1;stroke:#e31837;stroke-width:1px;stroke-linecap:butt;stroke-linejoin:miter;stroke-opacity:1"
       d="M 103.21915,787.4504 236.51918,654.64269 236.92747,787.7005 z"
       id="path3779"
       inkscape:connector-curvature="0"
       sodipodi:nodetypes="cccc" />
    <polygon
       transform="matrix(0.07381083,0,0,0.07381083,59.88736,610.62196)"
       id="polygon10"
       style="fill:#e31837;fill-opacity:1;stroke:#e31837;stroke-width:7;stroke-linecap:butt;stroke-linejoin:miter;stroke-opacity:1"
       points="2383,4200 2383,4200 578,2399 2383,2400 " />
    <polygon
       transform="matrix(0.07381083,0,0,0.07381083,59.88736,610.62196)"
       id="polygon12-0"
       style="fill:#e31837;fill-opacity:1;stroke:#e31837;stroke-width:7;stroke-linecap:butt;stroke-linejoin:miter;stroke-opacity:1"
       points="2394,589 2394,589 4194,2389 2394,2389 " />
    <polygon
       transform="matrix(0.07381083,0,0,0.07381083,59.88736,610.62196)"
       id="polygon14"
       style="fill:#e31837;fill-opacity:1;stroke:#e31837;stroke-width:7;stroke-linecap:butt;stroke-linejoin:miter;stroke-opacity:1"
       points="2701,3451 3451,2701 3001,2701 2701,3001 2701,3451 " />
    <polygon
       transform="matrix(0.07381083,0,0,0.07381083,59.88736,610.62196)"
       id="polygon16"
       style="fill:#e31837;fill-opacity:1;stroke:#e31837;stroke-width:7;stroke-linecap:butt;stroke-linejoin:miter;stroke-opacity:1"
       points="1335,2091 2085,1341 2085,1791 1785,2091 1335,2091 " />
    <polygon
       transform="matrix(0.07381083,0,0,0.07381083,59.88736,610.62196)"
       id="polygon18"
       style="fill:#ffffff;stroke:#e31837;stroke-width:7;stroke-linecap:butt;stroke-linejoin:miter;stroke-opacity:1"
       points="1330,2706 2080,3456 2080,3006 1780,2706 1330,2706 " />
    <polygon
       transform="matrix(0.07381083,0,0,0.07381083,59.88736,610.62196)"
       id="polygon20"
       style="fill:#ffffff;stroke:#e31837;stroke-width:7;stroke-linecap:butt;stroke-linejoin:miter;stroke-opacity:1"
       points="3452,2086 2702,1336 2702,1786 3002,2086 3452,2086 " />
  </g>
</svg>
