<?xml version="1.0" encoding="UTF-8" standalone="no"?>
<!-- Created with Inkscape (http://www.inkscape.org/) -->

<svg
   xmlns:dc="http://purl.org/dc/elements/1.1/"
   xmlns:cc="http://creativecommons.org/ns#"
   xmlns:rdf="http://www.w3.org/1999/02/22-rdf-syntax-ns#"
   xmlns:svg="http://www.w3.org/2000/svg"
   xmlns="http://www.w3.org/2000/svg"
   xmlns:sodipodi="http://sodipodi.sourceforge.net/DTD/sodipodi-0.dtd"
   xmlns:inkscape="http://www.inkscape.org/namespaces/inkscape"
   width="117.38251mm"
   height="12.722767mm"
   viewBox="0 0 117.38251 12.722767"
   version="1.1"
   id="svg8"
   inkscape:version="0.92.3 (2405546, 2018-03-11)"
   sodipodi:docname="BMB_CENG_LOGO.svg">
  <defs
     id="defs2" />
  <sodipodi:namedview
     id="base"
     pagecolor="#ffffff"
     bordercolor="#666666"
     borderopacity="1.0"
     inkscape:pageopacity="0.0"
     inkscape:pageshadow="2"
     inkscape:zoom="3.959798"
     inkscape:cx="204.5985"
     inkscape:cy="21.063746"
     inkscape:document-units="mm"
     inkscape:current-layer="layer1"
     showgrid="false"
     inkscape:window-width="2560"
     inkscape:window-height="1361"
     inkscape:window-x="-9"
     inkscape:window-y="-9"
     inkscape:window-maximized="1"
     fit-margin-top="0"
     fit-margin-left="0"
     fit-margin-right="0"
     fit-margin-bottom="0"
     showguides="false" />
  <metadata
     id="metadata5">
    <rdf:RDF>
      <cc:Work
         rdf:about="">
        <dc:format>image/svg+xml</dc:format>
        <dc:type
           rdf:resource="http://purl.org/dc/dcmitype/StillImage" />
        <dc:title></dc:title>
      </cc:Work>
    </rdf:RDF>
  </metadata>
  <g
     inkscape:label="Layer 1"
     inkscape:groupmode="layer"
     id="layer1"
     transform="translate(-18.842114,-18.148066)">
    <path
       style="fill:#cf0a2c;stroke-width:0.26458332"
       inkscape:connector-curvature="0"
       class="st0"
       d="m 27.15003,18.556325 c -0.396875,0 -0.820208,0.05292 -1.190625,0.105833 -0.396875,-0.07937 -0.79375,-0.105833 -1.190625,-0.105833 -3.280833,0 -5.926666,2.672291 -5.926666,5.953125 0,3.280833 2.672291,5.953124 5.953125,5.953124 0.396875,0 0.79375,-0.05292 1.190625,-0.132291 0.396875,0.07937 0.79375,0.132291 1.190625,0.132291 3.254375,0 5.926666,-2.672291 5.926666,-5.953124 -0.02646,-3.280834 -2.672291,-5.953125 -5.953125,-5.953125 m -5.953125,5.953125 c 0,-2.883959 2.037292,-5.265209 4.7625,-5.820834 v 11.641667 c -2.725208,-0.555625 -4.7625,-2.963333 -4.7625,-5.820833 m 5.953125,5.767916 c -0.264583,0 -0.529166,-0.02646 -0.767291,-0.05292 2.487083,-0.714374 4.339166,-2.989791 4.339166,-5.714999 0,-2.725209 -1.825625,-5.027084 -4.339166,-5.715 0.264583,-0.02646 0.529166,-0.05292 0.767291,-0.05292 3.175,0 5.741458,2.592917 5.741458,5.767917 0.02646,3.175 -2.566458,5.767916 -5.741458,5.767916"
       id="path12" />
    <g
       id="layer1-9"
       transform="matrix(0.04506903,0,0,0.04506903,119.22259,-10.985822)">
      <path
         style="fill:#ffffff;fill-opacity:1;stroke:#ffffff;stroke-width:3;stroke-linecap:butt;stroke-linejoin:miter;stroke-miterlimit:4;stroke-dasharray:none;stroke-opacity:1"
         id="polygon12"
         d="m 234.5,650 c -44.8337,45.99012 -91.46618,92.62139 -136.75,137.875 -4.476627,2.88504 -2.16377,-0.65798 -0.09731,3.29458 42.73271,42.80566 96.5226,92.55459 139.19106,135.42417 46.20684,-46.69866 91.86461,-92.94793 138.28125,-139.4375 -46.74407,-46.8601 -92.47461,-91.73372 -139.21875,-138.59375 -0.46875,0.47917 -0.9375,0.95833 -1.40625,1.4375 z"
         inkscape:connector-curvature="0" />
      <path
         style="fill:#ffffff;fill-opacity:1;stroke:#e31837;stroke-width:1.00000012px;stroke-linecap:butt;stroke-linejoin:miter;stroke-opacity:1"
         id="path3779-9"
         d="M 369.15517,787.3719 236.1039,920.1847 235.94189,787.3719 Z"
         inkscape:connector-curvature="0" />
      <path
         style="fill:#ffffff;fill-opacity:1;stroke:#e31837;stroke-width:1px;stroke-linecap:butt;stroke-linejoin:miter;stroke-opacity:1"
         id="path3779"
         d="M 103.21915,787.4504 236.51918,654.64269 236.92747,787.7005 Z"
         inkscape:connector-curvature="0" />
      <polygon
         style="fill:#e31837;fill-opacity:1;stroke:#e31837;stroke-width:7;stroke-linecap:butt;stroke-linejoin:miter;stroke-opacity:1"
         id="polygon10"
         transform="matrix(0.07381083,0,0,0.07381083,59.88736,610.62196)"
         points="2383,2400 2383,4200 578,2399 " />
      <polygon
         style="fill:#e31837;fill-opacity:1;stroke:#e31837;stroke-width:7;stroke-linecap:butt;stroke-linejoin:miter;stroke-opacity:1"
         id="polygon12-0"
         transform="matrix(0.07381083,0,0,0.07381083,59.88736,610.62196)"
         points="2394,2389 2394,589 4194,2389 " />
      <polygon
         style="fill:#e31837;fill-opacity:1;stroke:#e31837;stroke-width:7;stroke-linecap:butt;stroke-linejoin:miter;stroke-opacity:1"
         id="polygon14"
         transform="matrix(0.07381083,0,0,0.07381083,59.88736,610.62196)"
         points="3451,2701 3001,2701 2701,3001 2701,3451 " />
      <polygon
         style="fill:#e31837;fill-opacity:1;stroke:#e31837;stroke-width:7;stroke-linecap:butt;stroke-linejoin:miter;stroke-opacity:1"
         id="polygon16"
         transform="matrix(0.07381083,0,0,0.07381083,59.88736,610.62196)"
         points="2085,1341 2085,1791 1785,2091 1335,2091 " />
      <polygon
         style="fill:#ffffff;stroke:#e31837;stroke-width:7;stroke-linecap:butt;stroke-linejoin:miter;stroke-opacity:1"
         id="polygon18"
         transform="matrix(0.07381083,0,0,0.07381083,59.88736,610.62196)"
         points="2080,3456 2080,3006 1780,2706 1330,2706 " />
      <polygon
         style="fill:#ffffff;stroke:#e31837;stroke-width:7;stroke-linecap:butt;stroke-linejoin:miter;stroke-opacity:1"
         id="polygon20"
         transform="matrix(0.07381083,0,0,0.07381083,59.88736,610.62196)"
         points="2702,1336 2702,1786 3002,2086 3452,2086 " />
    </g>
    <text
       xml:space="preserve"
       style="font-style:normal;font-variant:normal;font-weight:normal;font-stretch:normal;font-size:10.58333302px;line-height:1.25;font-family:BentonSansTRUBoo;-inkscape-font-specification:BentonSansTRUBoo;letter-spacing:0px;word-spacing:0px;fill:#000000;fill-opacity:1;stroke:none;stroke-width:0.26458332;"
       x="33.007401"
       y="41.962517"
       id="text25"><tspan
         sodipodi:role="line"
         id="tspan23"
         x="33.007401"
         y="51.614517"
         style="stroke-width:0.26458332;-inkscape-font-specification:BentonSansTRUBoo;font-family:BentonSansTRUBoo;font-weight:normal;font-style:normal;font-stretch:normal;font-variant:normal;" /></text>
    <text
       xml:space="preserve"
       style="font-style:normal;font-variant:normal;font-weight:normal;font-stretch:normal;font-size:10.58333302px;line-height:1.25;font-family:BourgeoisTRUMed;-inkscape-font-specification:BourgeoisTRUMed;letter-spacing:0px;word-spacing:0px;fill:#000000;fill-opacity:1;stroke:none;stroke-width:0.26458332;"
       x="26.392479"
       y="36.283039"
       id="text33"><tspan
         sodipodi:role="line"
         id="tspan31"
         x="26.392479"
         y="45.93504"
         style="stroke-width:0.26458332;-inkscape-font-specification:BourgeoisTRUMed;font-family:BourgeoisTRUMed;font-weight:normal;font-style:normal;font-stretch:normal;font-variant:normal;" /></text>
    <g
       id="g872"
       transform="translate(-0.52916667,0.15837238)">
      <text
         transform="scale(1.0108564,0.98926016)"
         id="text37"
         y="28.738367"
         x="35.535511"
         style="font-style:normal;font-variant:normal;font-weight:normal;font-stretch:normal;font-size:10.69823074px;line-height:1.25;font-family:BentonSansTRUBol;-inkscape-font-specification:BentonSansTRUBol;letter-spacing:0px;word-spacing:0px;fill:#575757;fill-opacity:1;stroke:none;stroke-width:0.26745573"
         xml:space="preserve"><tspan
           style="font-style:normal;font-variant:normal;font-weight:bold;font-stretch:normal;font-size:4.99250793px;font-family:BourgeoisTRUBol;-inkscape-font-specification:BourgeoisTRUBol;fill:#575757;fill-opacity:1;stroke-width:0.26745573"
           y="28.738367"
           x="35.535511"
           id="tspan35"
           sodipodi:role="line">DEPARTMENT OF COMPUTER ENGINEERING</tspan></text>
      <text
         id="text37-1"
         y="23.485533"
         x="35.893593"
         style="font-style:normal;font-variant:normal;font-weight:normal;font-stretch:normal;font-size:10.58333302px;line-height:1.25;font-family:BentonSansTRUBol;-inkscape-font-specification:BentonSansTRUBol;letter-spacing:0px;word-spacing:0px;fill:#575757;fill-opacity:1;stroke:none;stroke-width:0.26458332"
         xml:space="preserve"><tspan
           style="font-style:normal;font-variant:normal;font-weight:bold;font-stretch:normal;font-size:5.64444494px;font-family:BourgeoisTRUBol;-inkscape-font-specification:BourgeoisTRUBol;fill:#575757;fill-opacity:1;stroke-width:0.26458332"
           y="23.485533"
           x="35.893593"
           id="tspan35-8"
           sodipodi:role="line">MIDDLE EAST TECHNICAL UNIVERSITY</tspan></text>
    </g>
  </g>
  <style
     id="style10"
     type="text/css">
	.st0{fill:#CF0A2C;}
	.st1{fill:#55565A;}
</style>
</svg>
